<svg xmlns="http://www.w3.org/2000/svg" width="64" height="64" viewBox="0 0 64 64">
    <g fill="none" fill-rule="evenodd">
        <g>
            <g>
                <g>
                    <g>
                        <g>
                            <path fill="#DC2B1C" d="M31.828 0C14.25 0 0 14.25 0 31.828c0 17.577 14.25 31.827 31.828 31.827 17.577 0 31.827-14.25 31.827-31.827C63.655 14.25 49.405 0 31.828 0z" transform="translate(-20 -13) translate(20 13)"/>
                            <path fill="#00A2D3" d="M31.828 61.382c-16.323 0-29.555-13.232-29.555-29.554 0-16.323 13.232-29.555 29.555-29.555 16.322 0 29.554 13.232 29.554 29.555 0 16.322-13.232 29.554-29.554 29.554z" transform="translate(-20 -13) translate(20 13)"/>
                            <path fill="#FFF" d="M53.568 22.355l-2.896 13.642h8.148L57.687 41.3H43.48l4.027-18.945h6.062zm-34.244 0l.218.005c2.671.114 4.802 2.316 4.802 5.016 0 2.042-1.213 3.797-2.964 4.581 1.143.973 1.875 2.42 1.875 4.038 0 2.93-2.375 5.305-5.305 5.305H5.21l4.027-18.945h10.087zm18.803 0l.227.004c3.243.12 5.835 2.786 5.835 6.059 0 .865-.187 1.687-.497 2.438-1.11 2.68-3.74 4.57-6.82 4.57H31.47L30.217 41.3h-6.062l4.027-18.945h9.945zM17.05 33.722h-4.547l-.686 3.221h4.327l.16-.005c1.003-.074 1.83-.836 1.964-1.818.008-.055.013-.11.013-.166 0-.68-.551-1.232-1.231-1.232zm19.596-7.01h-3.322l-.885 4.168h3.153l.174-.006c1.265-.082 2.29-1.055 2.457-2.295.01-.082.021-.17.021-.256 0-.89-.709-1.61-1.598-1.61zm-18.98 0l-3.673.003-.686 3.22h3.577l.173-.006c.858-.069 1.573-.642 1.847-1.424.053-.148.087-.3.087-.466 0-.733-.593-1.327-1.326-1.327z" transform="translate(-20 -13) translate(20 13)"/>
                        </g>
                    </g>
                </g>
            </g>
        </g>
    </g>
</svg>
