<svg width="48" height="48" viewBox="0 0 48 48" fill="none" xmlns="http://www.w3.org/2000/svg">
<path d="M22.2014 0.021124C21.7751 0.0331651 21.5174 0.0524309 21.3224 0.0885541C21.1706 0.115045 20.9033 0.14876 20.7275 0.160801C20.5517 0.17525 20.2916 0.213781 20.1496 0.245088C20.0075 0.276395 19.8172 0.31011 19.7233 0.319743C19.1213 0.37754 17.0454 0.919389 16.0387 1.28062C15.9063 1.32879 15.7738 1.36732 15.7473 1.36732C15.7184 1.36732 15.6317 1.39862 15.5571 1.43956C15.4824 1.4781 15.3981 1.51181 15.3717 1.51181C15.309 1.51181 15.0754 1.60573 14.6781 1.79116C14.4999 1.87304 14.3096 1.9477 14.2567 1.95733C14.2037 1.96696 14.117 2.0055 14.064 2.04162C14.011 2.07774 13.9267 2.11868 13.8786 2.13313C13.8304 2.14517 13.7533 2.1837 13.71 2.21742C13.6666 2.25113 13.592 2.28485 13.5462 2.29448C13.5005 2.30411 13.4186 2.34265 13.368 2.38118C13.315 2.41971 13.25 2.45102 13.2259 2.45102C13.1994 2.45102 13.1079 2.49918 13.0188 2.55698C12.9321 2.61477 12.778 2.70388 12.6793 2.75204C12.4264 2.87727 11.7449 3.27463 11.5016 3.43598C11.3909 3.51063 11.2343 3.60696 11.1549 3.65031C10.9429 3.7659 10.2036 4.262 9.99651 4.42575C9.90018 4.50282 9.78218 4.5847 9.73883 4.60637C9.62565 4.66417 9.33666 4.88332 9.23552 4.98687C9.18976 5.03503 9.13196 5.07597 9.10788 5.07597C9.08621 5.07597 9.04286 5.10487 9.01155 5.13859C8.98265 5.17471 8.87188 5.26863 8.76591 5.3481C8.41431 5.61541 8.10847 5.89236 7.38841 6.60278C6.42272 7.55162 5.60874 8.40894 5.57021 8.51009C5.55576 8.55584 5.53409 8.59197 5.52445 8.59197C5.51482 8.59197 5.40886 8.70756 5.29086 8.84965C5.17044 8.99414 5.03558 9.14827 4.98742 9.19161C4.93926 9.23737 4.90072 9.29276 4.90072 9.31443C4.90072 9.3337 4.79476 9.49264 4.66472 9.66603C4.53467 9.83702 4.38537 10.0489 4.32998 10.1332C4.27459 10.2199 4.18789 10.3427 4.13732 10.4078C4.08675 10.4728 4.00246 10.6004 3.94948 10.6895C3.8965 10.7786 3.76886 10.9785 3.66531 11.135C3.47265 11.4288 3.18848 11.8985 3.10178 12.0718C3.07289 12.1248 3.02954 12.1898 3.00064 12.2139C2.97174 12.2404 2.94284 12.3006 2.93562 12.3512C2.92598 12.4018 2.89468 12.4668 2.86337 12.4957C2.83206 12.5246 2.79353 12.5872 2.77908 12.6354C2.76463 12.6835 2.72129 12.7606 2.68516 12.8063C2.64904 12.8545 2.61051 12.9292 2.60088 12.9749C2.59124 13.0207 2.5503 13.0977 2.51418 13.1435C2.47565 13.1893 2.44434 13.2446 2.44434 13.2639C2.44434 13.2856 2.40581 13.3602 2.36005 13.4325C2.3143 13.5047 2.27577 13.5866 2.27577 13.6131C2.27577 13.642 2.23723 13.7215 2.19148 13.7937C2.14091 13.8708 2.10719 13.9551 2.10719 13.9984C2.10719 14.0466 2.08552 14.0947 2.04939 14.1285C2.02049 14.1574 1.97956 14.2272 1.9627 14.2826C1.94584 14.338 1.90249 14.4463 1.86396 14.521C1.82543 14.5957 1.7869 14.7016 1.77967 14.757C1.77004 14.8124 1.74355 14.8774 1.71706 14.8991C1.69298 14.9232 1.65204 15.0195 1.62555 15.1158C1.59665 15.2122 1.55089 15.3422 1.51959 15.4024C1.48828 15.465 1.45456 15.5589 1.44734 15.6119C1.43771 15.6625 1.41362 15.7347 1.39677 15.7685C1.29321 15.9683 0.951246 17.093 0.746548 17.9045C0.546666 18.7065 0.325109 19.7444 0.303435 19.9901C0.291394 20.1249 0.260088 20.3441 0.231189 20.4765C0.204699 20.609 0.166167 20.8956 0.144493 21.1147C0.125227 21.3338 0.0842876 21.7119 0.0529808 21.9576C0.00240822 22.3766 0 22.497 0 23.9684C0 25.3219 0.00481644 25.5771 0.0409397 25.8468C0.0650219 26.0178 0.101145 26.3333 0.120411 26.5452C0.166167 27.0293 0.199882 27.2605 0.24323 27.4122C0.262496 27.4772 0.288986 27.6723 0.303435 27.8433C0.3516 28.4694 0.866959 30.6079 1.19448 31.5423C1.24987 31.694 1.30766 31.8818 1.32693 31.9565C1.34619 32.0312 1.39436 32.1732 1.43289 32.2744C1.47383 32.3731 1.50514 32.4719 1.50514 32.4959C1.50514 32.52 1.5244 32.561 1.55089 32.5874C1.57497 32.6163 1.60628 32.7006 1.62073 32.7777C1.63518 32.8548 1.67371 32.9511 1.70743 32.9944C1.73873 33.0378 1.78449 33.1365 1.80616 33.216C1.83025 33.2955 1.86878 33.3822 1.89286 33.4111C1.91935 33.4376 1.93862 33.4929 1.93862 33.5315C1.93862 33.5724 1.97474 33.6591 2.0229 33.7338C2.06866 33.806 2.10719 33.8879 2.10719 33.9144C2.10719 33.9433 2.1385 34.0155 2.17703 34.0733C2.21797 34.1311 2.25891 34.225 2.27095 34.2804C2.2854 34.3382 2.32152 34.4153 2.35283 34.4538C2.38654 34.4924 2.42508 34.5718 2.43952 34.6296C2.45397 34.6874 2.4901 34.7573 2.51659 34.7813C2.54308 34.8054 2.57679 34.8704 2.59124 34.9234C2.60569 34.9788 2.64663 35.0535 2.68516 35.0944C2.72129 35.1329 2.75982 35.198 2.76704 35.2365C2.77668 35.275 2.81039 35.34 2.84411 35.3786C2.87782 35.4171 2.92598 35.4942 2.95488 35.5496C3.02231 35.6844 3.22701 36.0336 3.66772 36.7561C4.01209 37.3244 4.70566 38.3262 4.82125 38.4274C4.85738 38.4587 4.90554 38.5237 4.92721 38.5743C4.94889 38.6224 5.03077 38.738 5.11024 38.8295C5.1873 38.9211 5.3029 39.0607 5.3631 39.1402C5.62078 39.475 7.45584 41.3823 8.04586 41.9289C8.55399 42.3985 8.6166 42.4515 8.65273 42.4515C8.67199 42.4515 8.74183 42.4997 8.80926 42.5623C9.13919 42.8585 10.772 44.0385 11.126 44.236C11.2054 44.2793 11.3547 44.3733 11.4583 44.4431C11.5594 44.5129 11.675 44.578 11.7112 44.5852C11.7473 44.5948 11.8003 44.6261 11.8292 44.6526C11.8557 44.6815 11.9761 44.7562 12.0941 44.8212C12.2097 44.8862 12.3421 44.9657 12.3879 44.9994C12.4312 45.0307 12.5107 45.0692 12.5613 45.0789C12.6142 45.0909 12.6793 45.1246 12.7058 45.1511C12.7347 45.18 12.8575 45.2499 12.9803 45.3077C13.1031 45.3655 13.2356 45.4401 13.2717 45.4738C13.3078 45.5075 13.3512 45.534 13.3704 45.534C13.4114 45.534 13.9436 45.7676 14.2542 45.9242C14.3843 45.9892 14.5264 46.0446 14.5673 46.0446C14.6107 46.047 14.6757 46.0735 14.7263 46.1144C14.772 46.1529 14.8274 46.1842 14.8515 46.1842C14.8972 46.1842 15.0971 46.2565 15.6173 46.4612C16.282 46.7213 17.9099 47.1957 18.7961 47.3884C18.9744 47.4269 19.179 47.4751 19.2513 47.4943C19.3211 47.516 19.4969 47.5425 19.6414 47.5545C19.7883 47.5666 19.9184 47.5882 19.9352 47.6003C19.9786 47.6364 20.1953 47.6749 20.518 47.7014C20.677 47.7159 20.8889 47.7472 20.9876 47.7737C21.1899 47.8242 21.4741 47.8531 22.1676 47.8989C22.8034 47.9422 25.1249 47.9398 25.792 47.8989C26.3868 47.8604 26.8227 47.8122 26.9239 47.7737C26.9624 47.7592 27.1743 47.7303 27.3935 47.7135C27.6247 47.6918 27.8607 47.6581 27.9594 47.6292C28.0533 47.6027 28.2412 47.569 28.3784 47.5545C28.5181 47.5401 28.7325 47.4967 28.8577 47.4582C28.9829 47.4197 29.1154 47.3884 29.1539 47.3884C29.2647 47.3884 29.5344 47.3233 30.0738 47.1692C31.4248 46.7815 32.0895 46.572 32.4098 46.4275C32.5013 46.3865 32.6 46.3528 32.6289 46.3528C32.6578 46.3528 32.759 46.3143 32.8577 46.2685C32.9541 46.2228 33.0552 46.1842 33.0841 46.1842C33.113 46.1842 33.2117 46.1457 33.3032 46.1C33.3972 46.0542 33.4959 46.0157 33.5272 46.0157C33.5561 46.0157 33.5922 45.994 33.6067 45.9699C33.6187 45.9434 33.6693 45.9097 33.7175 45.8953C33.9679 45.811 35.0661 45.298 35.2708 45.168C35.343 45.1222 35.5068 45.0283 35.6368 44.9609C35.7644 44.891 36.051 44.7249 36.275 44.59C36.4965 44.4576 36.735 44.3131 36.8024 44.2721C36.8722 44.2336 36.9348 44.1806 36.9421 44.1589C36.9493 44.1349 36.9878 44.106 37.0239 44.0939C37.1925 44.0337 38.6639 43.003 39.0276 42.6875C39.1263 42.6032 39.3142 42.4491 39.4466 42.3455C39.7741 42.0879 42.375 39.487 42.4208 39.369C42.44 39.3232 42.4665 39.2775 42.4834 39.2678C42.5966 39.198 43.9114 37.4159 44.0487 37.1462C44.08 37.0836 44.1186 37.033 44.133 37.033C44.145 37.033 44.1836 36.9728 44.2173 36.9006C44.2486 36.8259 44.2919 36.7609 44.3088 36.7537C44.3425 36.7416 44.3883 36.667 44.6821 36.154C44.7423 36.0457 44.8169 35.9276 44.8482 35.8915C44.8771 35.853 44.9012 35.8 44.9012 35.7711C44.9012 35.7422 44.9349 35.6868 44.9735 35.6483C45.0144 35.6098 45.0578 35.5375 45.0698 35.4894C45.0843 35.4412 45.1204 35.3834 45.1517 35.3617C45.1854 35.3425 45.2167 35.2895 45.2263 35.2461C45.236 35.2028 45.2721 35.1233 45.3106 35.0703C45.3467 35.0173 45.3853 34.9379 45.3949 34.8945C45.4021 34.8512 45.4359 34.7862 45.4672 34.7476C45.4985 34.7115 45.5514 34.6128 45.5828 34.5261C45.6165 34.4418 45.7104 34.225 45.7923 34.0468C45.8741 33.8686 46.0331 33.505 46.1463 33.2401C46.5003 32.4068 47.295 29.9336 47.3576 29.4664C47.3721 29.3556 47.4106 29.1798 47.4443 29.0763C47.478 28.9703 47.5141 28.7801 47.5262 28.6548C47.5382 28.5272 47.5768 28.3369 47.6105 28.2334C47.6538 28.0985 47.6803 27.9516 47.6948 27.7397C47.7068 27.5735 47.7333 27.3977 47.7526 27.352C47.7959 27.246 47.8272 27.0124 47.8754 26.4369C47.8946 26.1912 47.9308 25.8565 47.9548 25.6903C48.0151 25.2472 48.0151 22.6198 47.9548 22.1864C47.9308 22.0274 47.897 21.6975 47.8754 21.4519C47.8296 20.9124 47.7959 20.6523 47.7501 20.5247C47.7309 20.4717 47.7068 20.2935 47.6948 20.1273C47.6803 19.9395 47.649 19.7492 47.6105 19.6216C47.5768 19.5084 47.5406 19.3182 47.5286 19.2002C47.5166 19.0798 47.478 18.8967 47.4443 18.7884C47.4106 18.6824 47.3697 18.5114 47.3576 18.4079C47.3432 18.3043 47.2444 17.9262 47.1385 17.5674C46.7218 16.1538 46.1993 14.6751 45.9103 14.102C45.8717 14.0249 45.8404 13.9406 45.8404 13.9141C45.8404 13.8876 45.8163 13.8419 45.7899 13.8154C45.761 13.7865 45.7272 13.7215 45.7176 13.6709C45.7056 13.6203 45.6694 13.5409 45.6381 13.4927C45.6044 13.4445 45.5611 13.353 45.5394 13.2856C45.5177 13.2206 45.4792 13.1555 45.4551 13.1435C45.4334 13.1315 45.4021 13.0737 45.3877 13.0159C45.3732 12.9581 45.3371 12.881 45.3082 12.8473C45.2817 12.8112 45.248 12.7437 45.2336 12.6956C45.2215 12.6474 45.1709 12.5583 45.1252 12.4981C45.077 12.4355 44.9976 12.2982 44.947 12.1923C44.8964 12.0863 44.829 11.9731 44.7953 11.9418C44.7591 11.9081 44.7327 11.8551 44.7327 11.819C44.7327 11.778 44.7013 11.7275 44.6363 11.6649C44.5833 11.6143 44.54 11.5613 44.54 11.5469C44.54 11.4987 44.1932 10.9472 44.1402 10.9111C44.1113 10.8918 44.08 10.8533 44.0728 10.822C44.0463 10.7184 43.3961 9.77681 43.0686 9.36741C42.9891 9.27109 42.9265 9.17235 42.9265 9.14827C42.9265 9.12659 42.8831 9.06398 42.8278 9.01341C42.7748 8.96043 42.6423 8.81112 42.5364 8.68107C42.428 8.55344 42.3317 8.44748 42.322 8.44748C42.3124 8.44748 42.2811 8.3969 42.2522 8.33188C42.1775 8.17535 40.1354 6.13559 39.5911 5.67803C39.3792 5.49982 39.1046 5.26141 38.977 5.15304C38.8518 5.04226 38.7169 4.93389 38.676 4.91462C38.6375 4.89295 38.4039 4.73401 38.1582 4.55821C36.9999 3.72978 35.9258 3.06511 34.8349 2.49918C34.2184 2.1813 34.1293 2.13795 34.0642 2.13795C34.0402 2.13795 33.9896 2.10905 33.9511 2.07533C33.9101 2.04162 33.809 1.98864 33.7247 1.95974C33.6404 1.92843 33.4911 1.87545 33.3948 1.84174C33.2984 1.80802 33.1925 1.75745 33.1588 1.73096C33.1274 1.70688 33.0528 1.67557 32.9974 1.66834C32.942 1.65871 32.8385 1.62018 32.7662 1.58165C32.694 1.54312 32.6169 1.51181 32.5928 1.51181C32.5687 1.51181 32.4917 1.48773 32.4218 1.46124C32.352 1.43234 32.0076 1.31193 31.656 1.19393C30.1172 0.678567 28.4675 0.298069 27.0563 0.139127C26.8107 0.110228 26.5626 0.076513 26.5024 0.064472C26.4422 0.0500227 26.1942 0.0283487 25.9486 0.0187158C25.4212 -0.00777457 23.0611 -0.00536636 22.2014 0.021124ZM24.0099 11.3831C24.7011 11.636 25.2068 12.0526 25.4765 12.5848C25.621 12.8714 25.6836 13.117 25.7101 13.5264C25.7414 13.9671 25.7101 14.5932 25.6451 14.8413C25.4838 15.4554 24.966 16.0671 24.3375 16.3801C23.904 16.5993 23.9305 16.5945 22.7456 16.6065L21.698 16.6137L21.4139 16.4813C21.0141 16.2934 20.8166 16.1586 20.5614 15.9009C20.0027 15.3374 19.7763 14.704 19.8148 13.8058C19.8389 13.2543 19.9738 12.7413 20.1785 12.4379C20.3735 12.1441 20.9924 11.5541 21.1032 11.5541C21.1273 11.5541 21.2044 11.5228 21.2766 11.4842C21.5921 11.3181 21.8329 11.2916 22.9624 11.2988L23.7932 11.3036L24.0099 11.3831ZM15.8942 13.4807C16.6576 13.6035 17.1754 13.8587 17.6354 14.3332C17.922 14.6294 18.0496 14.8076 18.223 15.1495L18.3651 15.4337L18.3554 20.9413L18.3482 26.4489L18.2832 26.8101C18.1411 27.5832 18.0496 27.9589 17.9629 28.1347C17.9292 28.1997 17.8907 28.308 17.8786 28.3755C17.8521 28.5152 17.4066 29.4351 17.2428 29.6904C16.8888 30.237 16.2892 30.9065 15.81 31.287C15.2031 31.7711 14.5866 32.0986 13.8063 32.3563C13.0959 32.5899 12.6913 32.6741 11.9207 32.7512C11.4944 32.7921 10.0977 32.7921 9.76532 32.7512C7.82912 32.5056 6.29267 31.8265 5.41608 30.8246C4.52504 29.8108 4.35406 28.7945 4.88868 27.6988C4.94648 27.5759 5.02113 27.4459 5.05244 27.4098C5.08134 27.3712 5.11987 27.311 5.13432 27.2773C5.22343 27.0726 6.10242 26.0925 6.35288 25.9215C6.60093 25.7529 6.67317 25.777 6.96457 26.1407C7.25355 26.4947 7.53772 26.7451 7.92785 26.9883C8.37578 27.2653 8.70812 27.4001 9.19458 27.5013C9.70271 27.6073 10.0953 27.6097 10.5552 27.5133C11.1573 27.3857 11.3403 27.2966 11.675 26.9594C12.0917 26.5428 12.2024 26.2225 12.2458 25.2857C12.2578 25.0305 12.2795 23.7517 12.294 22.444C12.371 15.2868 12.3662 15.5445 12.4505 15.1712C12.4962 14.9713 12.5492 14.8774 12.7347 14.6486C13.2404 14.0201 13.8978 13.654 14.8226 13.4807C15.1357 13.4204 15.5378 13.4204 15.8942 13.4807ZM35.4731 17.5746C35.8969 17.6035 36.2846 17.6541 36.5086 17.7095C36.8313 17.7914 37.4622 17.9888 37.7007 18.0803C39.1191 18.6318 40.4508 19.7035 41.2937 20.9702C41.5394 21.3411 42.0234 22.2851 42.0475 22.444C42.0547 22.5018 42.0884 22.6006 42.1197 22.668C42.1751 22.7812 42.375 23.5759 42.4569 24.0094C42.5123 24.3032 42.5484 24.9823 42.5339 25.4254C42.5099 26.0491 42.375 26.7885 42.1679 27.4122C41.891 28.2478 41.6911 28.6813 41.3491 29.1943C40.7254 30.1287 39.7019 31.1064 38.7699 31.6531C38.3725 31.8867 37.7681 32.1829 37.6284 32.2142C37.5682 32.2286 37.4285 32.272 37.3153 32.3129C36.9204 32.4574 36.1353 32.6332 35.6898 32.6741C35.343 32.7055 34.1293 32.7055 33.7753 32.6717C33.2936 32.6284 32.4531 32.4285 31.9041 32.2286C31.5212 32.0889 30.8782 31.7566 30.488 31.4989C29.9679 31.1522 29.6548 30.8945 29.1635 30.4008C28.3881 29.6229 27.9739 29.0161 27.5043 27.9781C27.4031 27.7542 27.3333 27.5615 27.3116 27.4435C27.2923 27.3424 27.261 27.2292 27.2418 27.1906C27.2008 27.1112 27.1551 26.9113 27.0636 26.4369C26.9985 26.0949 26.9961 26.0708 26.9961 25.2087C26.9961 24.3273 27.0178 23.9829 27.0949 23.6433C27.3164 22.6656 27.6199 21.8829 28.0557 21.1749C28.3279 20.7294 28.9685 19.9828 29.4477 19.547C30.1918 18.8678 30.9841 18.3766 31.8366 18.0587C32.2292 17.9142 33.0793 17.6758 33.3032 17.6469C33.4116 17.6348 33.6115 17.6083 33.7512 17.5915C34.0642 17.5505 34.9553 17.5409 35.4731 17.5746ZM23.5283 17.8877C24.1255 17.9455 24.5759 18.1646 25.0214 18.6198C25.2863 18.8895 25.4621 19.1568 25.5897 19.4843C25.6523 19.6505 25.6668 19.73 25.6909 20.0527C25.7318 20.6306 25.7294 29.5916 25.6885 30.1287C25.6331 30.8487 25.5416 31.0703 25.0888 31.5929C24.7806 31.9493 24.624 32.0721 24.2797 32.219C23.8558 32.3996 23.3693 32.4502 22.4639 32.4117C21.58 32.3731 21.3898 32.3298 21.0237 32.0865C20.4867 31.7277 20.1086 31.2268 19.916 30.6272C19.8534 30.4321 19.8509 30.3887 19.8293 29.6639C19.7956 28.597 19.8172 20.385 19.8534 20.0671C19.9232 19.4603 20.1327 19.0147 20.5469 18.5957C20.9659 18.1694 21.4307 17.9455 22.0039 17.8901C22.3025 17.8612 23.2273 17.8612 23.5283 17.8877Z" fill="#E30513"/>
<path d="M34.4142 22.1165C33.817 22.208 33.3257 22.4151 32.9741 22.721C32.6346 23.0172 32.413 23.2869 32.2589 23.5952C31.9988 24.1153 31.9145 24.4934 31.9121 25.1364C31.9121 25.6181 31.9434 25.83 32.0807 26.2249C32.3938 27.128 32.9838 27.7012 33.9109 28.0094C34.2481 28.1202 34.5082 28.1563 34.8453 28.1395C36.2541 28.072 37.2873 27.128 37.5473 25.6662C37.6148 25.2929 37.6172 24.9919 37.557 24.6451C37.4197 23.8408 37.1957 23.3977 36.6587 22.8799C36.1698 22.4079 35.746 22.208 35.0283 22.1117C34.7273 22.0732 34.6936 22.0732 34.4142 22.1165Z" fill="#e30513"/>
</svg>
